<svg id="Layer_1" enable-background="new 0 0 128 128" height="512" viewBox="0 0 128 128" width="512" xmlns="http://www.w3.org/2000/svg"><path d="m99 64c0 19.3-15.7 35-35 35s-35-15.7-35-35 15.7-35 35-35c19.2-.1 34.9 15.4 35 34.6z" fill="#ffc900"/><g fill="#ffa500"><path d="m64 7.8c-1 0-1.8.8-1.8 1.8v12c0 1 .8 1.8 1.8 1.8s1.8-.8 1.8-1.8v-12c0-1.1-.8-1.8-1.8-1.8z"/><path d="m94.1 35.7c.5 0 .9-.2 1.2-.5l24.4-24.4c.7-.7.7-1.8 0-2.5s-1.8-.7-2.5 0l-24.4 24.4c-.7.7-.7 1.8 0 2.5.3.3.8.5 1.3.5z"/><path d="m118.5 62.3h-12c-1 0-1.8.8-1.8 1.8s.8 1.8 1.8 1.8h12c1 0 1.8-.8 1.8-1.8s-.8-1.8-1.8-1.8z"/><path d="m95.3 92.8c-.7-.7-1.8-.7-2.5 0s-.7 1.8 0 2.5l24.4 24.4c.7.7 1.8.7 2.5 0s.7-1.8 0-2.5z"/><path d="m64 104.8c-1 0-1.8.8-1.8 1.8v12c0 1 .8 1.8 1.8 1.8s1.8-.8 1.8-1.8v-12c0-1.1-.8-1.8-1.8-1.8z"/><path d="m32.7 92.8-24.4 24.5c-.7.7-.7 1.8 0 2.5s1.8.7 2.5 0l24.4-24.4c.7-.7.7-1.8 0-2.5s-1.8-.8-2.5-.1z"/><path d="m21.5 65.8c1 0 1.8-.8 1.8-1.8s-.8-1.8-1.8-1.8h-12c-1 0-1.8.8-1.8 1.8s.8 1.8 1.8 1.8z"/><path d="m10.7 8.3c-.7-.7-1.8-.7-2.5 0s-.7 1.8 0 2.5l24.4 24.4c.7.7 1.8.7 2.5 0s.7-1.8 0-2.5z"/></g><path d="m90.5 65.8c-1 0-1.8-.8-1.8-1.8 0-13.7-11.1-24.7-24.8-24.8-1 0-1.8-.8-1.8-1.8s.8-1.8 1.8-1.8c15.6 0 28.2 12.7 28.3 28.3.1 1.1-.7 1.9-1.7 1.9z" fill="#fff"/></svg>